<svg width="38" height="28" viewBox="0 0 38 28" fill="none" xmlns="http://www.w3.org/2000/svg">
<path d="M26.5466 12.3753C26.5466 16.5366 23.1679 19.9099 19 19.9099C14.8322 19.9099 11.4534 16.5366 11.4534 12.3753C11.4534 6.38009 19 0 19 0C19 0 26.5466 6.38009 26.5466 12.3753Z" fill="#059669"/>
<path d="M31.8785 20.8749C31.8785 22.7596 26.1126 24.2873 19 24.2873C11.8874 24.2873 6.12146 22.7596 6.12146 20.8749C6.12146 19.7393 8.21467 18.7335 11.4344 18.1132C9.09144 18.6373 7.61561 19.401 7.61561 20.2515C7.61561 21.8322 12.7125 23.1135 19 23.1135C25.2874 23.1135 30.3844 21.8322 30.3844 20.2515C30.3844 19.401 28.9085 18.6373 26.5656 18.1132C29.7853 18.7334 31.8785 19.7393 31.8785 20.8749Z" fill="#059669"/>
<path d="M38 22.9655C38 25.7461 29.4934 27.9999 19 27.9999C8.50662 27.9999 0 25.7461 0 22.9655C0 21.2901 3.08816 19.8062 7.83832 18.8911C4.38171 19.6644 2.20437 20.7911 2.20437 22.0459C2.20437 24.3779 9.72399 26.2682 19 26.2682C28.276 26.2682 35.7956 24.3779 35.7956 22.0459C35.7956 20.7911 33.6183 19.6644 30.1617 18.8911C34.9118 19.8062 38 21.2901 38 22.9655Z" fill="#059669"/>
</svg>
